<svg version="1.1" class="has-solid " viewBox="0 0 36 36" preserveAspectRatio="xMidYMid meet" xmlns="http://www.w3.org/2000/svg" xmlns:xlink="http://www.w3.org/1999/xlink" focusable="false" role="img" width="32" height="32" fill="currentColor"><path d="M18,2A16,16,0,1,0,34,18,16,16,0,0,0,18,2Zm0,30A14,14,0,1,1,32,18,14,14,0,0,1,18,32Z" class="clr-i-outline clr-i-outline-path-1"/><path d="M18,7.2A10.8,10.8,0,1,0,28.8,18,10.81,10.81,0,0,0,18,7.2Zm0,20A9.2,9.2,0,1,1,27.2,18,9.21,9.21,0,0,1,18,27.2Z" class="clr-i-outline clr-i-outline-path-2"/><path d="M18,12.31A5.69,5.69,0,1,0,23.69,18,5.69,5.69,0,0,0,18,12.31Zm0,9.77A4.09,4.09,0,1,1,22.09,18,4.09,4.09,0,0,1,18,22.09Z" class="clr-i-outline clr-i-outline-path-3"/><path d="M18,7.83A10.17,10.17,0,1,0,28.17,18,10.18,10.18,0,0,0,18,7.83Zm0,16A5.88,5.88,0,1,1,23.88,18,5.88,5.88,0,0,1,18,23.88Z" class="clr-i-solid clr-i-solid-path-2" style="display:none"/><path d="M18,2A16,16,0,1,0,34,18,16,16,0,0,0,18,2Zm0,27.83A11.83,11.83,0,1,1,29.83,18,11.85,11.85,0,0,1,18,29.83Z" class="clr-i-solid clr-i-solid-path-3" style="display:none"/><circle cx="18" cy="18" r="4.09" class="clr-i-solid clr-i-solid-path-1" style="display:none"/></svg>